/vscmnt/brussel_pixiu_data/_data_brussel/112/vsc11236/PredSimResults/SUBJ11mtu3D/worker8.mot
version=1
nRows=4
nColumns=50
inDegrees=yes
endheader
                time	         pelvis_tilt	         pelvis_list	     pelvis_rotation	           pelvis_tx	           pelvis_ty	           pelvis_tz	       hip_flexion_r	     hip_adduction_r	      hip_rotation_r	        knee_angle_r	       ankle_angle_r	         mtp_angle_r	       hip_flexion_l	     hip_adduction_l	      hip_rotation_l	        knee_angle_l	       ankle_angle_l	         mtp_angle_l	    lumbar_extension	      lumbar_bending	     lumbar_rotation	 ercspn_r/activation	 intobl_r/activation	 extobl_r/activation	    abd_r/activation	    add_r/activation	hamstrings_r/activation	bifemsh_r/activation	glut_max_r/activation	iliopsoas_r/activation	rect_fem_r/activation	  vasti_r/activation	gastroc_r/activation	 soleus_r/activation	tib_ant_r/activation	 ercspn_l/activation	 intobl_l/activation	 extobl_l/activation	    abd_l/activation	    add_l/activation	hamstrings_l/activation	bifemsh_l/activation	glut_max_l/activation	iliopsoas_l/activation	rect_fem_l/activation	  vasti_l/activation	gastroc_l/activation	 soleus_l/activation	tib_ant_l/activation	
          0.00000000	         -3.14252553	         -0.81662226	          4.71002192	          0.00000000	          0.94345047	         -0.00609810	         30.60143364	         -1.88658602	         -3.92906616	         -9.72135490	          1.80796375	          0.25750305	        -13.84047281	         -2.52530510	         -2.33161380	        -11.23513641	         11.90273297	         28.91679268	        -14.46665911	         -1.59679073	         -3.51331929	          0.02895597	          0.21250609	          0.05608648	          0.01000009	          0.18245864	          0.03342341	          0.15731427	          0.07758640	          0.08778586	          0.03804513	          0.01377719	          0.01000041	          0.01000014	          0.40160340	          0.01395149	          0.01000050	          0.01000027	          0.03960924	          0.01989637	          0.01339966	          0.18735776	          0.02147915	          0.02778314	          0.01217451	          0.01000076	          0.14748894	          0.29131856	          0.01318390	
          0.01304043	         -3.23467649	         -0.85860702	          4.84910308	          0.01799294	          0.94158772	         -0.00513545	         30.29443920	         -1.76478156	         -3.96232598	        -10.88480376	          1.36668286	          0.21250983	        -14.49382865	         -2.74666184	         -2.59109182	        -11.78346837	         11.06921785	         30.63428638	        -14.05223885	         -1.12225138	         -3.73373071	          0.02378662	          0.17456610	          0.04607299	          0.04168840	          0.16119206	          0.05168247	          0.12922882	          0.09494929	          0.07211285	          0.03125301	          0.01131755	          0.01217531	          0.01217348	          0.44601607	          0.01366390	          0.01000056	          0.01001677	          0.03253755	          0.01634500	          0.02540554	          0.15390788	          0.01818329	          0.02282354	          0.01000192	          0.01000480	          0.12115696	          0.26970002	          0.01083014	
          0.02608086	         -3.30932593	         -0.89775932	          4.96571005	          0.03624109	          0.94007155	         -0.00410609	         29.95803954	         -1.66171292	         -4.02817368	        -12.05574461	          0.82377091	          0.20555759	        -15.00333593	         -2.97575297	         -2.86281732	        -12.61817809	         10.09811295	         32.39832832	        -13.61914777	         -0.64783680	         -3.94282781	          0.02783261	          0.14339964	          0.03784727	          0.09573755	          0.20981662	          0.04363764	          0.10615728	          0.11100838	          0.05923806	          0.02567353	          0.01000023	          0.01000168	          0.01000014	          0.50765616	          0.03204968	          0.01000021	          0.01000060	          0.02672842	          0.01342740	          0.02087035	          0.12642998	          0.01493710	          0.01874980	          0.01000789	          0.01268266	          0.09952600	          0.24483447	          0.01000013	
          0.03912129	         -3.36607948	         -0.92088323	          5.05570862	          0.05449676	          0.93906329	         -0.00300837	         29.71193848	         -1.58295435	         -4.14766516	        -13.38304883	          0.19442493	          0.16565145	        -15.27942053	         -3.20033419	         -3.14131443	        -13.86181988	          8.97231292	         34.19953419	        -13.19781998	         -0.19085678	         -4.13626720	          0.03616454	          0.11779753	          0.03109015	          0.12764350	          0.27498712	          0.04140892	          0.08720466	          0.11930661	          0.04866189	          0.02109021	          0.03605808	          0.01000045	          0.01000023	          0.54963901	          0.05858282	          0.01000033	          0.01000051	          0.02195643	          0.06060166	          0.01975166	          0.10385792	          0.01227051	          0.01540349	          0.01000285	          0.01481145	          0.08175694	          0.21415024	          0.01000015	
